<svg width="12" height="24" viewBox="0 0 12 24" fill="none" xmlns="http://www.w3.org/2000/svg">
<path d="M9.80306 24C9.80306 24 11.9815 24 11.9815 21.8183V2.18173C11.9815 0 9.80306 0 9.80306 0H2.17845C2.17845 0 0 0 0 2.18173V21.8183C3.0303e-05 24 2.17845 24 2.17845 24H9.80306ZM5.99076 23.0916C5.38952 23.0916 4.90155 22.6036 4.90155 22.0024C4.90155 21.4011 5.38952 20.9132 5.99076 20.9132C6.59203 20.9132 7.07997 21.4011 7.07997 22.0024C7.07997 22.6036 6.59203 23.0916 5.99076 23.0916ZM4.35691 1.32994C4.35691 1.19488 4.42118 1.08921 4.50176 1.08921H7.4797C7.55921 1.08921 7.62458 1.19706 7.62458 1.32994V1.39421C7.62458 1.52927 7.55921 1.63494 7.4797 1.63494H4.50176C4.42224 1.63494 4.35691 1.52709 4.35691 1.39421V1.32994ZM1.08924 2.72306H10.8923V20.1507H1.08924V2.72306Z" fill="white"/>
</svg>
