<svg width="32" height="30" viewBox="0 0 32 30" fill="none" xmlns="http://www.w3.org/2000/svg">
<path d="M9.14 0C4.1075 0 0 3.79219 0 8.45625C0 9.93047 0.44 11.2969 1.16 12.5063C0.985 13.3641 0.88 14.2477 0.88 15.15C0.88 22.9617 7.7275 29.2875 16.16 29.2875C17.04 29.2875 17.8975 29.2148 18.74 29.0812C19.9775 29.6648 21.3775 30 22.86 30C27.8925 30 32 26.2102 32 21.5437C32 20.2734 31.6675 19.0828 31.12 18C31.3275 17.0742 31.46 16.1273 31.46 15.15C31.46 7.34297 24.595 1.0125 16.16 1.0125C15.3525 1.0125 14.5575 1.0875 13.78 1.2C12.4175 0.452344 10.84 0 9.14 0ZM9.14 1.2C10.6825 1.2 12.11 1.60078 13.32 2.30625C13.45 2.38594 13.605 2.41875 13.76 2.4C14.5425 2.27578 15.3425 2.2125 16.16 2.2125C23.9125 2.2125 30.18 8.00156 30.18 15.15C30.18 16.1039 30.075 17.0297 29.86 17.925C29.82 18.0633 29.835 18.2086 29.9 18.3375C30.425 19.3055 30.72 20.3836 30.72 21.5437C30.72 25.5539 27.2125 28.8 22.86 28.8C21.5125 28.8 20.2425 28.4859 19.14 27.9375C19.0175 27.8789 18.8775 27.8578 18.74 27.8813C17.905 28.0242 17.0375 28.0875 16.16 28.0875C8.4075 28.0875 2.16 22.3055 2.16 15.15C2.16 14.2594 2.255 13.3852 2.44 12.5437C2.4725 12.3961 2.4425 12.2414 2.36 12.1125C1.6725 11.0344 1.28 9.79687 1.28 8.45625C1.28 4.45078 4.79 1.2 9.14 1.2ZM16.06 5.025C14.375 5.025 12.86 5.23828 11.56 5.68125C11.555 5.68359 11.545 5.67891 11.54 5.68125C10.2275 6.13125 9.1575 6.81563 8.42 7.70625C7.675 8.60156 7.28 9.67266 7.28 10.8188C7.28 12.0047 7.6525 13.0711 8.38 13.9125C9.075 14.7141 10.005 15.3422 11.14 15.7875C12.22 16.2117 13.5525 16.568 15.1 16.875C16.2075 17.0906 17.105 17.2922 17.74 17.475C18.3025 17.6367 18.745 17.8781 19.06 18.15C19.315 18.3703 19.42 18.5883 19.42 18.9937C19.42 19.4719 19.2125 19.7883 18.6 20.175C17.99 20.5617 17.1425 20.7938 16.02 20.7938C15.1975 20.7938 14.565 20.6719 14.16 20.4937C13.7075 20.2969 13.37 20.0578 13.16 19.8C12.8975 19.4812 12.645 19.0617 12.4 18.5437C12.14 17.9789 11.8025 17.5008 11.36 17.1562C10.89 16.7906 10.2875 16.6125 9.66 16.6125C8.9175 16.6125 8.2225 16.8352 7.7 17.2875C7.185 17.7375 6.88 18.3609 6.88 19.0125C6.88 19.957 7.2575 20.9039 7.94 21.8062C8.6125 22.7063 9.5125 23.4305 10.58 23.9625C12.0775 24.6984 13.94 25.05 16.12 25.05C17.9375 25.05 19.56 24.7922 20.94 24.2625C22.3275 23.7305 23.44 22.9687 24.2 21.975C24.955 20.9859 25.3375 19.8305 25.34 18.6C25.34 17.5852 25.1225 16.6781 24.66 15.9187C24.2125 15.1852 23.58 14.5711 22.8 14.1C22.0525 13.65 21.1575 13.2773 20.14 12.975C19.1575 12.6844 18.055 12.4078 16.86 12.1687C16.85 12.1664 16.85 12.1711 16.84 12.1687C15.92 11.9719 15.245 11.8172 14.86 11.7188C14.5075 11.6273 14.1325 11.5055 13.78 11.3437C13.4725 11.2008 13.2625 11.032 13.12 10.875C13.0125 10.7531 12.98 10.6734 12.98 10.4812C12.98 10.1977 13.095 9.97969 13.6 9.675C14.095 9.37266 14.8125 9.20625 15.78 9.20625C16.8375 9.20625 17.54 9.38906 17.84 9.6C18.2575 9.89062 18.65 10.3312 18.98 10.9125C18.9875 10.9195 18.9925 10.9242 19 10.9312C19.335 11.4633 19.6425 11.857 20 12.15C20.445 12.5109 21.035 12.6562 21.68 12.6562C22.425 12.6562 23.125 12.4008 23.64 11.9062C24.1375 11.4305 24.44 10.8211 24.44 10.1812C24.44 9.56484 24.245 8.93672 23.9 8.34375C23.545 7.73437 23 7.18125 22.3 6.675C21.585 6.15703 20.7025 5.74922 19.68 5.45625C18.6375 5.15625 17.4175 5.025 16.06 5.025ZM16.06 6.225C17.3225 6.225 18.42 6.36328 19.3 6.61875C20.205 6.87891 20.9575 7.22344 21.52 7.63125C22.1125 8.06016 22.53 8.49844 22.78 8.925C23.0425 9.375 23.16 9.79453 23.16 10.1812C23.16 10.5094 23.0425 10.7719 22.74 11.0625C22.455 11.3391 22.1275 11.4562 21.68 11.4562C21.24 11.4562 20.985 11.3672 20.84 11.25C20.655 11.1 20.4025 10.793 20.12 10.35C20.1125 10.3359 20.1075 10.3266 20.1 10.3125C19.7025 9.62578 19.2075 9.05391 18.62 8.64375C17.9375 8.16328 16.98 8.00625 15.78 8.00625C14.645 8.00625 13.6725 8.2125 12.9 8.68125C12.18 9.11719 11.7 9.75469 11.7 10.4812C11.7 10.9055 11.855 11.3203 12.14 11.6438C12.42 11.9531 12.785 12.2109 13.22 12.4125C13.64 12.607 14.08 12.7688 14.52 12.8812C14.945 12.9891 15.6375 13.1484 16.58 13.35C17.75 13.582 18.82 13.8422 19.76 14.1187C20.6925 14.3977 21.4925 14.7352 22.12 15.1125C22.74 15.4875 23.2175 15.9562 23.56 16.5187C23.8875 17.0578 24.06 17.7445 24.06 18.6C24.06 19.6008 23.765 20.4891 23.16 21.2812C22.5625 22.0641 21.67 22.6922 20.46 23.1562C19.2725 23.6133 17.8075 23.85 16.12 23.85C14.09 23.85 12.435 23.5289 11.18 22.9125C10.2775 22.4625 9.555 21.8555 9 21.1125C8.9925 21.1125 8.9875 21.1125 8.98 21.1125C8.4125 20.3602 8.16 19.6594 8.16 19.0125C8.16 18.6727 8.2875 18.4242 8.58 18.1687C8.8625 17.925 9.1775 17.8125 9.66 17.8125C10.0375 17.8125 10.305 17.8898 10.54 18.075C10.775 18.2578 11.0175 18.5695 11.22 19.0125C11.2275 19.0195 11.2325 19.0242 11.24 19.0312C11.515 19.6148 11.8175 20.1141 12.16 20.5312C12.52 20.9719 13.015 21.3187 13.62 21.5812C14.2775 21.8695 15.0775 21.9937 16.02 21.9937C17.32 21.9937 18.4375 21.743 19.32 21.1875C20.1675 20.6531 20.7 19.868 20.7 18.9937C20.7 18.3281 20.4225 17.7047 19.92 17.2687C19.435 16.8492 18.83 16.5352 18.12 16.3312C17.4225 16.1297 16.49 15.9328 15.36 15.7125C13.8675 15.4172 12.615 15.0633 11.64 14.6812C10.6675 14.2992 9.925 13.7742 9.38 13.1437C8.8475 12.5273 8.56 11.782 8.56 10.8188C8.56 9.91641 8.8425 9.13125 9.42 8.4375C9.4275 8.4375 9.4325 8.4375 9.44 8.4375C10.005 7.75313 10.835 7.19766 11.98 6.80625C13.105 6.41953 14.4825 6.225 16.06 6.225Z" fill="white"/>
</svg>
