<svg width="38" height="24" viewBox="0 0 38 24" fill="none" xmlns="http://www.w3.org/2000/svg">
<path d="M34.5 0H3C1.34996 0 0 1.35004 0 3V21C0 22.65 1.34996 24 3 24H34.5C36.15 24 37.5 22.65 37.5 21V3C37.5 1.35004 36.15 0 34.5 0ZM33.75 1.50008L18.75 14.5501L3.74996 1.50008H33.75ZM1.94996 22.05C1.64996 21.75 1.5 21.45 1.5 21V3C1.5 2.55004 1.65004 2.25004 1.94996 1.94996L13.5 12L1.94996 22.05ZM3.74996 22.5001L14.7 13.05L18.75 16.5L22.8 13.05L33.75 22.5H3.74996V22.5001ZM36 21C36 21.45 35.85 21.75 35.55 22.05L24 12L35.55 1.94996C35.85 2.24996 36 2.54996 36 3V21Z" fill="white"/>
</svg>
